<svg xmlns="http://www.w3.org/2000/svg" viewBox="0 0 100 100" width="100%" height="100%" fill="none" stroke="#a87b51" stroke-width="4" stroke-linecap="round" stroke-linejoin="round">
    <!-- Contorno principal irregular simulando trazos a mano alzada -->
    <path d="M 50 15 C 80 12 88 40 85 60 C 80 85 45 92 25 75 C 5 55 15 25 40 16" />
    <path d="M 35 18 C 50 10 75 20 80 45" />
    
    <!-- Anilla superior del reloj de bolsillo -->
    <path d="M 42 12 Q 50 5 58 12" />
    <path d="M 48 12 L 49 6 M 52 12 L 51 6" />

    <!-- Centro del reloj -->
    <circle cx="48" cy="50" r="2" fill="#a87b51" />

    <!-- Agujas del reloj (trazos levemente combados) -->
    <!-- Horario (corta apuntando aprox a las 4) -->
    <path d="M 48 50 Q 60 55 65 60" />
    <!-- Minutero (larga apuntando aprox a las 12) -->
    <path d="M 48 50 Q 52 30 55 22" />
    
    <!-- Marcas rápidas para las horas principales (12, 3, 6, 9) -->
    <path d="M 50 22 L 51 26 M 75 52 L 71 51 M 50 78 L 49 74 M 23 50 L 27 51" />
</svg>
